<svg width="30" height="30" viewBox="0 0 30 30" fill="none" xmlns="http://www.w3.org/2000/svg">
<path d="M10.5 11.25C10.5 11.0511 10.579 10.8603 10.7197 10.7197C10.8603 10.579 11.0511 10.5 11.25 10.5H18.75C18.9489 10.5 19.1397 10.579 19.2803 10.7197C19.421 10.8603 19.5 11.0511 19.5 11.25C19.5 11.4489 19.421 11.6397 19.2803 11.7803C19.1397 11.921 18.9489 12 18.75 12H11.25C11.0511 12 10.8603 11.921 10.7197 11.7803C10.579 11.6397 10.5 11.4489 10.5 11.25ZM10.5 16.5C10.5 16.1022 10.658 15.7206 10.9393 15.4393C11.2206 15.158 11.6022 15 12 15H18C18.3978 15 18.7794 15.158 19.0607 15.4393C19.342 15.7206 19.5 16.1022 19.5 16.5V21C19.5 21.3978 19.342 21.7794 19.0607 22.0607C18.7794 22.342 18.3978 22.5 18 22.5H12C11.6022 22.5 11.2206 22.342 10.9393 22.0607C10.658 21.7794 10.5 21.3978 10.5 21V16.5ZM12 16.5V21H18V16.5H12ZM10.6275 4.5C10.7827 4.06113 11.0701 3.68119 11.4503 3.41254C11.8304 3.14389 12.2845 2.99976 12.75 3H17.25C17.7155 2.99976 18.1696 3.14389 18.5497 3.41254C18.9299 3.68119 19.2173 4.06113 19.3725 4.5H21.75C22.3467 4.5 22.919 4.73705 23.341 5.15901C23.7629 5.58097 24 6.15326 24 6.75V24.75C24 25.3467 23.7629 25.919 23.341 26.341C22.919 26.7629 22.3467 27 21.75 27H8.25C7.65326 27 7.08097 26.7629 6.65901 26.341C6.23705 25.919 6 25.3467 6 24.75V6.75C6 6.15326 6.23705 5.58097 6.65901 5.15901C7.08097 4.73705 7.65326 4.5 8.25 4.5H10.6275ZM12.75 4.5C12.5511 4.5 12.3603 4.57902 12.2197 4.71967C12.079 4.86032 12 5.05109 12 5.25C12 5.44891 12.079 5.63968 12.2197 5.78033C12.3603 5.92098 12.5511 6 12.75 6H17.25C17.4489 6 17.6397 5.92098 17.7803 5.78033C17.921 5.63968 18 5.44891 18 5.25C18 5.05109 17.921 4.86032 17.7803 4.71967C17.6397 4.57902 17.4489 4.5 17.25 4.5H12.75ZM10.6275 6H8.25C8.05109 6 7.86032 6.07902 7.71967 6.21967C7.57902 6.36032 7.5 6.55109 7.5 6.75V24.75C7.5 24.9489 7.57902 25.1397 7.71967 25.2803C7.86032 25.421 8.05109 25.5 8.25 25.5H21.75C21.9489 25.5 22.1397 25.421 22.2803 25.2803C22.421 25.1397 22.5 24.9489 22.5 24.75V6.75C22.5 6.55109 22.421 6.36032 22.2803 6.21967C22.1397 6.07902 21.9489 6 21.75 6H19.3725C19.2173 6.43887 18.9299 6.81881 18.5497 7.08746C18.1696 7.35611 17.7155 7.50024 17.25 7.5H12.75C12.2845 7.50024 11.8304 7.35611 11.4503 7.08746C11.0701 6.81881 10.7827 6.43887 10.6275 6Z" fill="black"/>
</svg>
